<svg width="561" height="429" viewBox="0 0 561 429" fill="none" xmlns="http://www.w3.org/2000/svg">
<path opacity="0.8" d="M95.5 279.75L187.622 140.75H373.378L465.5 279.75H95.5Z" fill="#FFEC76"/>
<path opacity="0.8" d="M277.915 210V209.056C278.672 208.459 279.392 207.856 280.075 207.248C280.768 206.64 281.381 206.037 281.915 205.44C282.448 204.832 282.864 204.24 283.163 203.664C283.472 203.088 283.627 202.533 283.627 202C283.627 201.605 283.557 201.243 283.419 200.912C283.28 200.571 283.056 200.293 282.747 200.08C282.448 199.867 282.043 199.76 281.531 199.76C281.029 199.76 280.613 199.872 280.283 200.096C279.952 200.309 279.701 200.597 279.531 200.96C279.371 201.312 279.291 201.701 279.291 202.128H277.995C278.005 201.392 278.16 200.763 278.459 200.24C278.768 199.707 279.189 199.301 279.723 199.024C280.256 198.747 280.864 198.608 281.547 198.608C282.219 198.608 282.811 198.736 283.323 198.992C283.835 199.237 284.235 199.605 284.523 200.096C284.821 200.587 284.971 201.205 284.971 201.952C284.971 202.475 284.859 202.997 284.635 203.52C284.421 204.043 284.133 204.555 283.771 205.056C283.408 205.547 283.003 206.021 282.555 206.48C282.117 206.939 281.664 207.371 281.195 207.776C280.736 208.181 280.304 208.549 279.899 208.88H285.355V210H277.915ZM225.536 231V219.8H229.184C230.069 219.8 230.795 219.949 231.36 220.248C231.936 220.536 232.357 220.925 232.624 221.416C232.901 221.907 233.04 222.467 233.04 223.096C233.04 223.704 232.901 224.259 232.624 224.76C232.357 225.251 231.941 225.645 231.376 225.944C230.811 226.243 230.08 226.392 229.184 226.392H226.88V231H225.536ZM226.88 225.256H229.168C230.064 225.256 230.704 225.059 231.088 224.664C231.472 224.269 231.664 223.747 231.664 223.096C231.664 222.403 231.472 221.869 231.088 221.496C230.704 221.112 230.064 220.92 229.168 220.92H226.88V225.256ZM234.737 231V222.936H235.953L236.049 224.472C236.231 224.109 236.46 223.8 236.737 223.544C237.025 223.288 237.367 223.091 237.761 222.952C238.167 222.813 238.625 222.744 239.137 222.744V224.152H238.641C238.3 224.152 237.975 224.2 237.665 224.296C237.356 224.381 237.079 224.525 236.833 224.728C236.599 224.931 236.412 225.208 236.273 225.56C236.145 225.901 236.081 226.328 236.081 226.84V231H234.737ZM243.898 231.192C243.141 231.192 242.469 231.016 241.882 230.664C241.306 230.312 240.853 229.821 240.522 229.192C240.192 228.552 240.026 227.811 240.026 226.968C240.026 226.115 240.186 225.373 240.506 224.744C240.837 224.115 241.296 223.624 241.882 223.272C242.48 222.92 243.162 222.744 243.93 222.744C244.72 222.744 245.386 222.92 245.93 223.272C246.485 223.624 246.906 224.088 247.194 224.664C247.493 225.229 247.642 225.853 247.642 226.536C247.642 226.643 247.642 226.755 247.642 226.872C247.642 226.989 247.637 227.123 247.626 227.272H241.034V226.232H246.33C246.298 225.496 246.053 224.92 245.594 224.504C245.146 224.088 244.581 223.88 243.898 223.88C243.44 223.88 243.013 223.987 242.618 224.2C242.234 224.403 241.925 224.707 241.69 225.112C241.456 225.507 241.338 226.003 241.338 226.6V227.048C241.338 227.709 241.456 228.264 241.69 228.712C241.936 229.16 242.25 229.496 242.634 229.72C243.029 229.944 243.45 230.056 243.898 230.056C244.464 230.056 244.928 229.933 245.29 229.688C245.664 229.432 245.93 229.091 246.09 228.664H247.418C247.29 229.144 247.066 229.576 246.746 229.96C246.426 230.344 246.026 230.648 245.546 230.872C245.077 231.085 244.528 231.192 243.898 231.192ZM249.456 231V222.936H250.672L250.752 224.088C251.008 223.672 251.349 223.347 251.776 223.112C252.213 222.867 252.688 222.744 253.2 222.744C253.616 222.744 253.989 222.803 254.32 222.92C254.661 223.027 254.96 223.197 255.216 223.432C255.472 223.656 255.68 223.944 255.84 224.296C256.117 223.805 256.496 223.427 256.976 223.16C257.467 222.883 257.989 222.744 258.544 222.744C259.163 222.744 259.701 222.872 260.16 223.128C260.629 223.373 260.987 223.752 261.232 224.264C261.488 224.765 261.616 225.405 261.616 226.184V231H260.288V226.328C260.288 225.517 260.123 224.909 259.792 224.504C259.461 224.099 258.997 223.896 258.4 223.896C257.984 223.896 257.611 224.008 257.28 224.232C256.949 224.445 256.688 224.76 256.496 225.176C256.304 225.592 256.208 226.104 256.208 226.712V231H254.864V226.328C254.864 225.517 254.699 224.909 254.368 224.504C254.037 224.099 253.568 223.896 252.96 223.896C252.555 223.896 252.187 224.008 251.856 224.232C251.536 224.445 251.28 224.76 251.088 225.176C250.896 225.592 250.8 226.104 250.8 226.712V231H249.456ZM263.834 231V222.936H265.178V231H263.834ZM264.506 221.224C264.239 221.224 264.015 221.139 263.834 220.968C263.663 220.787 263.578 220.563 263.578 220.296C263.578 220.029 263.663 219.816 263.834 219.656C264.015 219.485 264.239 219.4 264.506 219.4C264.762 219.4 264.981 219.485 265.162 219.656C265.343 219.816 265.434 220.029 265.434 220.296C265.434 220.563 265.343 220.787 265.162 220.968C264.981 221.139 264.762 221.224 264.506 221.224ZM270.478 231.192C269.859 231.192 269.315 231.069 268.846 230.824C268.387 230.579 268.03 230.2 267.774 229.688C267.528 229.176 267.406 228.536 267.406 227.768V222.936H268.75V227.624C268.75 228.424 268.926 229.027 269.278 229.432C269.63 229.837 270.126 230.04 270.766 230.04C271.214 230.04 271.619 229.933 271.982 229.72C272.344 229.496 272.627 229.181 272.83 228.776C273.043 228.36 273.15 227.853 273.15 227.256V222.936H274.494V231H273.278L273.198 229.592C272.952 230.093 272.59 230.488 272.11 230.776C271.63 231.053 271.086 231.192 270.478 231.192ZM276.722 231V222.936H277.938L278.018 224.088C278.274 223.672 278.615 223.347 279.042 223.112C279.479 222.867 279.954 222.744 280.466 222.744C280.882 222.744 281.255 222.803 281.586 222.92C281.927 223.027 282.226 223.197 282.482 223.432C282.738 223.656 282.946 223.944 283.106 224.296C283.383 223.805 283.762 223.427 284.242 223.16C284.732 222.883 285.255 222.744 285.81 222.744C286.428 222.744 286.967 222.872 287.426 223.128C287.895 223.373 288.252 223.752 288.498 224.264C288.754 224.765 288.882 225.405 288.882 226.184V231H287.554V226.328C287.554 225.517 287.388 224.909 287.058 224.504C286.727 224.099 286.263 223.896 285.666 223.896C285.25 223.896 284.876 224.008 284.546 224.232C284.215 224.445 283.954 224.76 283.762 225.176C283.57 225.592 283.474 226.104 283.474 226.712V231H282.13V226.328C282.13 225.517 281.964 224.909 281.634 224.504C281.303 224.099 280.834 223.896 280.226 223.896C279.82 223.896 279.452 224.008 279.122 224.232C278.802 224.445 278.546 224.76 278.354 225.176C278.162 225.592 278.066 226.104 278.066 226.712V231H276.722ZM294.422 231L297.158 226.968L294.422 222.936H295.894L298.07 226.232L300.278 222.936H301.718L298.982 226.968L301.718 231H300.278L298.07 227.688L295.894 231H294.422ZM307.489 231V219.8H314.305V220.904H308.833V224.84H313.489V225.928H308.833V231H307.489ZM315.972 231V222.936H317.188L317.284 224.472C317.465 224.109 317.694 223.8 317.972 223.544C318.26 223.288 318.601 223.091 318.996 222.952C319.401 222.813 319.86 222.744 320.372 222.744V224.152H319.876C319.534 224.152 319.209 224.2 318.9 224.296C318.59 224.381 318.313 224.525 318.068 224.728C317.833 224.931 317.646 225.208 317.508 225.56C317.38 225.901 317.316 226.328 317.316 226.84V231H315.972ZM325.133 231.192C324.375 231.192 323.703 231.016 323.117 230.664C322.541 230.312 322.087 229.821 321.757 229.192C321.426 228.552 321.261 227.811 321.261 226.968C321.261 226.115 321.421 225.373 321.741 224.744C322.071 224.115 322.53 223.624 323.117 223.272C323.714 222.92 324.397 222.744 325.165 222.744C325.954 222.744 326.621 222.92 327.165 223.272C327.719 223.624 328.141 224.088 328.429 224.664C328.727 225.229 328.877 225.853 328.877 226.536C328.877 226.643 328.877 226.755 328.877 226.872C328.877 226.989 328.871 227.123 328.861 227.272H322.269V226.232H327.565C327.533 225.496 327.287 224.92 326.829 224.504C326.381 224.088 325.815 223.88 325.133 223.88C324.674 223.88 324.247 223.987 323.853 224.2C323.469 224.403 323.159 224.707 322.925 225.112C322.69 225.507 322.573 226.003 322.573 226.6V227.048C322.573 227.709 322.69 228.264 322.925 228.712C323.17 229.16 323.485 229.496 323.869 229.72C324.263 229.944 324.685 230.056 325.133 230.056C325.698 230.056 326.162 229.933 326.525 229.688C326.898 229.432 327.165 229.091 327.325 228.664H328.653C328.525 229.144 328.301 229.576 327.981 229.96C327.661 230.344 327.261 230.648 326.781 230.872C326.311 231.085 325.762 231.192 325.133 231.192ZM334.226 231.192C333.469 231.192 332.797 231.016 332.21 230.664C331.634 230.312 331.181 229.821 330.85 229.192C330.52 228.552 330.354 227.811 330.354 226.968C330.354 226.115 330.514 225.373 330.834 224.744C331.165 224.115 331.624 223.624 332.21 223.272C332.808 222.92 333.49 222.744 334.258 222.744C335.048 222.744 335.714 222.92 336.258 223.272C336.813 223.624 337.234 224.088 337.522 224.664C337.821 225.229 337.97 225.853 337.97 226.536C337.97 226.643 337.97 226.755 337.97 226.872C337.97 226.989 337.965 227.123 337.954 227.272H331.362V226.232H336.658C336.626 225.496 336.381 224.92 335.922 224.504C335.474 224.088 334.909 223.88 334.226 223.88C333.768 223.88 333.341 223.987 332.946 224.2C332.562 224.403 332.253 224.707 332.018 225.112C331.784 225.507 331.666 226.003 331.666 226.6V227.048C331.666 227.709 331.784 228.264 332.018 228.712C332.264 229.16 332.578 229.496 332.962 229.72C333.357 229.944 333.778 230.056 334.226 230.056C334.792 230.056 335.256 229.933 335.618 229.688C335.992 229.432 336.258 229.091 336.418 228.664H337.746C337.618 229.144 337.394 229.576 337.074 229.96C336.754 230.344 336.354 230.648 335.874 230.872C335.405 231.085 334.856 231.192 334.226 231.192Z" fill="black"/>
<path opacity="0.8" d="M279.525 0L192 133H370L279.525 0Z" fill="#FFF7C6"/>
<path opacity="0.8" d="M280.94 76V66.304L279.02 66.784V65.824L281.388 64.8H282.3V76H280.94ZM241.223 97V85.8H244.871C245.757 85.8 246.482 85.9493 247.047 86.248C247.623 86.536 248.045 86.9253 248.311 87.416C248.589 87.9067 248.727 88.4667 248.727 89.096C248.727 89.704 248.589 90.2587 248.311 90.76C248.045 91.2507 247.629 91.6453 247.063 91.944C246.498 92.2427 245.767 92.392 244.871 92.392H242.567V97H241.223ZM242.567 91.256H244.855C245.751 91.256 246.391 91.0587 246.775 90.664C247.159 90.2693 247.351 89.7467 247.351 89.096C247.351 88.4027 247.159 87.8693 246.775 87.496C246.391 87.112 245.751 86.92 244.855 86.92H242.567V91.256ZM250.425 97V88.936H251.641L251.737 90.472C251.918 90.1093 252.147 89.8 252.425 89.544C252.713 89.288 253.054 89.0907 253.449 88.952C253.854 88.8133 254.313 88.744 254.825 88.744V90.152H254.329C253.987 90.152 253.662 90.2 253.353 90.296C253.043 90.3813 252.766 90.5253 252.521 90.728C252.286 90.9307 252.099 91.208 251.961 91.56C251.833 91.9013 251.769 92.328 251.769 92.84V97H250.425ZM259.586 97.192C258.828 97.192 258.156 97.016 257.57 96.664C256.994 96.312 256.54 95.8213 256.21 95.192C255.879 94.552 255.714 93.8107 255.714 92.968C255.714 92.1147 255.874 91.3733 256.194 90.744C256.524 90.1147 256.983 89.624 257.57 89.272C258.167 88.92 258.85 88.744 259.618 88.744C260.407 88.744 261.074 88.92 261.618 89.272C262.172 89.624 262.594 90.088 262.882 90.664C263.18 91.2293 263.33 91.8533 263.33 92.536C263.33 92.6427 263.33 92.7547 263.33 92.872C263.33 92.9893 263.324 93.1227 263.314 93.272H256.722V92.232H262.018C261.986 91.496 261.74 90.92 261.282 90.504C260.834 90.088 260.268 89.88 259.586 89.88C259.127 89.88 258.7 89.9867 258.306 90.2C257.922 90.4027 257.612 90.7067 257.378 91.112C257.143 91.5067 257.026 92.0027 257.026 92.6V93.048C257.026 93.7093 257.143 94.264 257.378 94.712C257.623 95.16 257.938 95.496 258.322 95.72C258.716 95.944 259.138 96.056 259.586 96.056C260.151 96.056 260.615 95.9333 260.978 95.688C261.351 95.432 261.618 95.0907 261.778 94.664H263.106C262.978 95.144 262.754 95.576 262.434 95.96C262.114 96.344 261.714 96.648 261.234 96.872C260.764 97.0853 260.215 97.192 259.586 97.192ZM265.143 97V88.936H266.359L266.439 90.088C266.695 89.672 267.037 89.3467 267.463 89.112C267.901 88.8667 268.375 88.744 268.887 88.744C269.303 88.744 269.677 88.8027 270.007 88.92C270.349 89.0267 270.647 89.1973 270.903 89.432C271.159 89.656 271.367 89.944 271.527 90.296C271.805 89.8053 272.183 89.4267 272.663 89.16C273.154 88.8827 273.677 88.744 274.231 88.744C274.85 88.744 275.389 88.872 275.847 89.128C276.317 89.3733 276.674 89.752 276.919 90.264C277.175 90.7653 277.303 91.4053 277.303 92.184V97H275.975V92.328C275.975 91.5173 275.81 90.9093 275.479 90.504C275.149 90.0987 274.685 89.896 274.087 89.896C273.671 89.896 273.298 90.008 272.967 90.232C272.637 90.4453 272.375 90.76 272.183 91.176C271.991 91.592 271.895 92.104 271.895 92.712V97H270.551V92.328C270.551 91.5173 270.386 90.9093 270.055 90.504C269.725 90.0987 269.255 89.896 268.647 89.896C268.242 89.896 267.874 90.008 267.543 90.232C267.223 90.4453 266.967 90.76 266.775 91.176C266.583 91.592 266.487 92.104 266.487 92.712V97H265.143ZM279.521 97V88.936H280.865V97H279.521ZM280.193 87.224C279.927 87.224 279.703 87.1387 279.521 86.968C279.351 86.7867 279.265 86.5627 279.265 86.296C279.265 86.0293 279.351 85.816 279.521 85.656C279.703 85.4853 279.927 85.4 280.193 85.4C280.449 85.4 280.668 85.4853 280.849 85.656C281.031 85.816 281.121 86.0293 281.121 86.296C281.121 86.5627 281.031 86.7867 280.849 86.968C280.668 87.1387 280.449 87.224 280.193 87.224ZM286.165 97.192C285.547 97.192 285.003 97.0693 284.533 96.824C284.075 96.5787 283.717 96.2 283.461 95.688C283.216 95.176 283.093 94.536 283.093 93.768V88.936H284.437V93.624C284.437 94.424 284.613 95.0267 284.965 95.432C285.317 95.8373 285.813 96.04 286.453 96.04C286.901 96.04 287.307 95.9333 287.669 95.72C288.032 95.496 288.315 95.1813 288.517 94.776C288.731 94.36 288.837 93.8533 288.837 93.256V88.936H290.181V97H288.965L288.885 95.592C288.64 96.0933 288.277 96.488 287.797 96.776C287.317 97.0533 286.773 97.192 286.165 97.192ZM292.409 97V88.936H293.625L293.705 90.088C293.961 89.672 294.302 89.3467 294.729 89.112C295.166 88.8667 295.641 88.744 296.153 88.744C296.569 88.744 296.942 88.8027 297.273 88.92C297.614 89.0267 297.913 89.1973 298.169 89.432C298.425 89.656 298.633 89.944 298.793 90.296C299.07 89.8053 299.449 89.4267 299.929 89.16C300.42 88.8827 300.942 88.744 301.497 88.744C302.116 88.744 302.654 88.872 303.113 89.128C303.582 89.3733 303.94 89.752 304.185 90.264C304.441 90.7653 304.569 91.4053 304.569 92.184V97H303.241V92.328C303.241 91.5173 303.076 90.9093 302.745 90.504C302.414 90.0987 301.95 89.896 301.353 89.896C300.937 89.896 300.564 90.008 300.233 90.232C299.902 90.4453 299.641 90.76 299.449 91.176C299.257 91.592 299.161 92.104 299.161 92.712V97H297.817V92.328C297.817 91.5173 297.652 90.9093 297.321 90.504C296.99 90.0987 296.521 89.896 295.913 89.896C295.508 89.896 295.14 90.008 294.809 90.232C294.489 90.4453 294.233 90.76 294.041 91.176C293.849 91.592 293.753 92.104 293.753 92.712V97H292.409ZM310.109 97L312.845 92.968L310.109 88.936H311.581L313.757 92.232L315.965 88.936H317.405L314.669 92.968L317.405 97H315.965L313.757 93.688L311.581 97H310.109ZM249.442 118V106.8H253.09C253.976 106.8 254.701 106.949 255.266 107.248C255.842 107.536 256.264 107.925 256.53 108.416C256.808 108.907 256.946 109.467 256.946 110.096C256.946 110.704 256.808 111.259 256.53 111.76C256.264 112.251 255.848 112.645 255.282 112.944C254.717 113.243 253.986 113.392 253.09 113.392H250.786V118H249.442ZM250.786 112.256H253.074C253.97 112.256 254.61 112.059 254.994 111.664C255.378 111.269 255.57 110.747 255.57 110.096C255.57 109.403 255.378 108.869 254.994 108.496C254.61 108.112 253.97 107.92 253.074 107.92H250.786V112.256ZM258.643 118V109.936H259.859L259.955 111.472C260.137 111.109 260.366 110.8 260.643 110.544C260.931 110.288 261.273 110.091 261.667 109.952C262.073 109.813 262.531 109.744 263.043 109.744V111.152H262.547C262.206 111.152 261.881 111.2 261.571 111.296C261.262 111.381 260.985 111.525 260.739 111.728C260.505 111.931 260.318 112.208 260.179 112.56C260.051 112.901 259.987 113.328 259.987 113.84V118H258.643ZM267.804 118.192C267.047 118.192 266.375 118.016 265.788 117.664C265.212 117.312 264.759 116.821 264.428 116.192C264.098 115.552 263.932 114.811 263.932 113.968C263.932 113.115 264.092 112.373 264.412 111.744C264.743 111.115 265.202 110.624 265.788 110.272C266.386 109.92 267.068 109.744 267.836 109.744C268.626 109.744 269.292 109.92 269.836 110.272C270.391 110.624 270.812 111.088 271.1 111.664C271.399 112.229 271.548 112.853 271.548 113.536C271.548 113.643 271.548 113.755 271.548 113.872C271.548 113.989 271.543 114.123 271.532 114.272H264.94V113.232H270.236C270.204 112.496 269.959 111.92 269.5 111.504C269.052 111.088 268.487 110.88 267.804 110.88C267.346 110.88 266.919 110.987 266.524 111.2C266.14 111.403 265.831 111.707 265.596 112.112C265.362 112.507 265.244 113.003 265.244 113.6V114.048C265.244 114.709 265.362 115.264 265.596 115.712C265.842 116.16 266.156 116.496 266.54 116.72C266.935 116.944 267.356 117.056 267.804 117.056C268.37 117.056 268.834 116.933 269.196 116.688C269.57 116.432 269.836 116.091 269.996 115.664H271.324C271.196 116.144 270.972 116.576 270.652 116.96C270.332 117.344 269.932 117.648 269.452 117.872C268.983 118.085 268.434 118.192 267.804 118.192ZM273.362 118V109.936H274.578L274.658 111.088C274.914 110.672 275.256 110.347 275.682 110.112C276.12 109.867 276.594 109.744 277.106 109.744C277.522 109.744 277.896 109.803 278.226 109.92C278.568 110.027 278.866 110.197 279.122 110.432C279.378 110.656 279.586 110.944 279.746 111.296C280.024 110.805 280.402 110.427 280.882 110.16C281.373 109.883 281.896 109.744 282.45 109.744C283.069 109.744 283.608 109.872 284.066 110.128C284.536 110.373 284.893 110.752 285.138 111.264C285.394 111.765 285.522 112.405 285.522 113.184V118H284.194V113.328C284.194 112.517 284.029 111.909 283.698 111.504C283.368 111.099 282.904 110.896 282.306 110.896C281.89 110.896 281.517 111.008 281.186 111.232C280.856 111.445 280.594 111.76 280.402 112.176C280.21 112.592 280.114 113.104 280.114 113.712V118H278.77V113.328C278.77 112.517 278.605 111.909 278.274 111.504C277.944 111.099 277.474 110.896 276.866 110.896C276.461 110.896 276.093 111.008 275.762 111.232C275.442 111.445 275.186 111.76 274.994 112.176C274.802 112.592 274.706 113.104 274.706 113.712V118H273.362ZM287.74 118V109.936H289.084V118H287.74ZM288.412 108.224C288.146 108.224 287.922 108.139 287.74 107.968C287.57 107.787 287.484 107.563 287.484 107.296C287.484 107.029 287.57 106.816 287.74 106.656C287.922 106.485 288.146 106.4 288.412 106.4C288.668 106.4 288.887 106.485 289.068 106.656C289.25 106.816 289.34 107.029 289.34 107.296C289.34 107.563 289.25 107.787 289.068 107.968C288.887 108.139 288.668 108.224 288.412 108.224ZM294.384 118.192C293.765 118.192 293.221 118.069 292.752 117.824C292.293 117.579 291.936 117.2 291.68 116.688C291.435 116.176 291.312 115.536 291.312 114.768V109.936H292.656V114.624C292.656 115.424 292.832 116.027 293.184 116.432C293.536 116.837 294.032 117.04 294.672 117.04C295.12 117.04 295.525 116.933 295.888 116.72C296.251 116.496 296.533 116.181 296.736 115.776C296.949 115.36 297.056 114.853 297.056 114.256V109.936H298.4V118H297.184L297.104 116.592C296.859 117.093 296.496 117.488 296.016 117.776C295.536 118.053 294.992 118.192 294.384 118.192ZM300.628 118V109.936H301.844L301.924 111.088C302.18 110.672 302.521 110.347 302.948 110.112C303.385 109.867 303.86 109.744 304.372 109.744C304.788 109.744 305.161 109.803 305.492 109.92C305.833 110.027 306.132 110.197 306.388 110.432C306.644 110.656 306.852 110.944 307.012 111.296C307.289 110.805 307.668 110.427 308.148 110.16C308.638 109.883 309.161 109.744 309.716 109.744C310.334 109.744 310.873 109.872 311.332 110.128C311.801 110.373 312.158 110.752 312.404 111.264C312.66 111.765 312.788 112.405 312.788 113.184V118H311.46V113.328C311.46 112.517 311.294 111.909 310.964 111.504C310.633 111.099 310.169 110.896 309.572 110.896C309.156 110.896 308.782 111.008 308.452 111.232C308.121 111.445 307.86 111.76 307.668 112.176C307.476 112.592 307.38 113.104 307.38 113.712V118H306.036V113.328C306.036 112.517 305.87 111.909 305.54 111.504C305.209 111.099 304.74 110.896 304.132 110.896C303.726 110.896 303.358 111.008 303.028 111.232C302.708 111.445 302.452 111.76 302.26 112.176C302.068 112.592 301.972 113.104 301.972 113.712V118H300.628Z" fill="black"/>
<path d="M0 429L92.8237 288H468.176L561 429H0Z" fill="#F4C700"/>
<path d="M280.961 353.192C280.247 353.192 279.596 353.064 279.009 352.808C278.433 352.541 277.975 352.147 277.633 351.624C277.292 351.101 277.111 350.451 277.089 349.672H278.449C278.46 350.099 278.561 350.493 278.753 350.856C278.956 351.208 279.244 351.491 279.617 351.704C279.991 351.917 280.439 352.024 280.961 352.024C281.484 352.024 281.921 351.923 282.273 351.72C282.625 351.517 282.892 351.251 283.073 350.92C283.255 350.579 283.345 350.2 283.345 349.784C283.345 349.261 283.217 348.84 282.961 348.52C282.716 348.189 282.38 347.949 281.953 347.8C281.537 347.64 281.079 347.56 280.577 347.56H279.745V346.424H280.577C281.313 346.424 281.889 346.253 282.305 345.912C282.721 345.571 282.929 345.101 282.929 344.504C282.929 344.013 282.764 343.603 282.433 343.272C282.113 342.941 281.623 342.776 280.961 342.776C280.332 342.776 279.831 342.957 279.457 343.32C279.084 343.683 278.871 344.147 278.817 344.712H277.457C277.489 344.104 277.655 343.565 277.953 343.096C278.252 342.627 278.657 342.264 279.169 342.008C279.681 341.741 280.284 341.608 280.977 341.608C281.703 341.608 282.311 341.736 282.801 341.992C283.292 342.248 283.66 342.589 283.905 343.016C284.161 343.443 284.289 343.912 284.289 344.424C284.289 344.808 284.22 345.171 284.081 345.512C283.943 345.843 283.735 346.136 283.457 346.392C283.18 346.648 282.828 346.829 282.401 346.936C282.839 347.021 283.228 347.187 283.569 347.432C283.921 347.677 284.199 347.997 284.401 348.392C284.604 348.787 284.705 349.251 284.705 349.784C284.705 350.392 284.561 350.957 284.273 351.48C283.996 351.992 283.58 352.408 283.025 352.728C282.471 353.037 281.783 353.192 280.961 353.192ZM241.606 374V362.8H248.422V363.904H242.95V367.84H247.606V368.928H242.95V374H241.606ZM250.089 374V365.936H251.305L251.401 367.472C251.582 367.109 251.811 366.8 252.089 366.544C252.377 366.288 252.718 366.091 253.113 365.952C253.518 365.813 253.977 365.744 254.489 365.744V367.152H253.993C253.651 367.152 253.326 367.2 253.017 367.296C252.707 367.381 252.43 367.525 252.185 367.728C251.95 367.931 251.763 368.208 251.625 368.56C251.497 368.901 251.433 369.328 251.433 369.84V374H250.089ZM259.25 374.192C258.492 374.192 257.82 374.016 257.234 373.664C256.658 373.312 256.204 372.821 255.874 372.192C255.543 371.552 255.378 370.811 255.378 369.968C255.378 369.115 255.538 368.373 255.858 367.744C256.188 367.115 256.647 366.624 257.234 366.272C257.831 365.92 258.514 365.744 259.282 365.744C260.071 365.744 260.738 365.92 261.282 366.272C261.836 366.624 262.258 367.088 262.546 367.664C262.844 368.229 262.994 368.853 262.994 369.536C262.994 369.643 262.994 369.755 262.994 369.872C262.994 369.989 262.988 370.123 262.978 370.272H256.386V369.232H261.682C261.65 368.496 261.404 367.92 260.946 367.504C260.498 367.088 259.932 366.88 259.25 366.88C258.791 366.88 258.364 366.987 257.97 367.2C257.586 367.403 257.276 367.707 257.042 368.112C256.807 368.507 256.69 369.003 256.69 369.6V370.048C256.69 370.709 256.807 371.264 257.042 371.712C257.287 372.16 257.602 372.496 257.986 372.72C258.38 372.944 258.802 373.056 259.25 373.056C259.815 373.056 260.279 372.933 260.642 372.688C261.015 372.432 261.282 372.091 261.442 371.664H262.77C262.642 372.144 262.418 372.576 262.098 372.96C261.778 373.344 261.378 373.648 260.898 373.872C260.428 374.085 259.879 374.192 259.25 374.192ZM268.344 374.192C267.586 374.192 266.914 374.016 266.328 373.664C265.752 373.312 265.298 372.821 264.968 372.192C264.637 371.552 264.472 370.811 264.472 369.968C264.472 369.115 264.632 368.373 264.952 367.744C265.282 367.115 265.741 366.624 266.328 366.272C266.925 365.92 267.608 365.744 268.376 365.744C269.165 365.744 269.832 365.92 270.376 366.272C270.93 366.624 271.352 367.088 271.64 367.664C271.938 368.229 272.088 368.853 272.088 369.536C272.088 369.643 272.088 369.755 272.088 369.872C272.088 369.989 272.082 370.123 272.072 370.272H265.48V369.232H270.776C270.744 368.496 270.498 367.92 270.04 367.504C269.592 367.088 269.026 366.88 268.344 366.88C267.885 366.88 267.458 366.987 267.064 367.2C266.68 367.403 266.37 367.707 266.136 368.112C265.901 368.507 265.784 369.003 265.784 369.6V370.048C265.784 370.709 265.901 371.264 266.136 371.712C266.381 372.16 266.696 372.496 267.08 372.72C267.474 372.944 267.896 373.056 268.344 373.056C268.909 373.056 269.373 372.933 269.736 372.688C270.109 372.432 270.376 372.091 270.536 371.664H271.864C271.736 372.144 271.512 372.576 271.192 372.96C270.872 373.344 270.472 373.648 269.992 373.872C269.522 374.085 268.973 374.192 268.344 374.192ZM277.351 374L280.087 369.968L277.351 365.936H278.823L280.999 369.232L283.207 365.936H284.647L281.911 369.968L284.647 374H283.207L280.999 370.688L278.823 374H277.351ZM290.419 374V362.8H297.235V363.904H291.763V367.84H296.419V368.928H291.763V374H290.419ZM298.901 374V365.936H300.117L300.213 367.472C300.395 367.109 300.624 366.8 300.901 366.544C301.189 366.288 301.531 366.091 301.925 365.952C302.331 365.813 302.789 365.744 303.301 365.744V367.152H302.805C302.464 367.152 302.139 367.2 301.829 367.296C301.52 367.381 301.243 367.525 300.997 367.728C300.763 367.931 300.576 368.208 300.437 368.56C300.309 368.901 300.245 369.328 300.245 369.84V374H298.901ZM308.062 374.192C307.305 374.192 306.633 374.016 306.046 373.664C305.47 373.312 305.017 372.821 304.686 372.192C304.356 371.552 304.19 370.811 304.19 369.968C304.19 369.115 304.35 368.373 304.67 367.744C305.001 367.115 305.46 366.624 306.046 366.272C306.644 365.92 307.326 365.744 308.094 365.744C308.884 365.744 309.55 365.92 310.094 366.272C310.649 366.624 311.07 367.088 311.358 367.664C311.657 368.229 311.806 368.853 311.806 369.536C311.806 369.643 311.806 369.755 311.806 369.872C311.806 369.989 311.801 370.123 311.79 370.272H305.198V369.232H310.494C310.462 368.496 310.217 367.92 309.758 367.504C309.31 367.088 308.745 366.88 308.062 366.88C307.604 366.88 307.177 366.987 306.782 367.2C306.398 367.403 306.089 367.707 305.854 368.112C305.62 368.507 305.502 369.003 305.502 369.6V370.048C305.502 370.709 305.62 371.264 305.854 371.712C306.1 372.16 306.414 372.496 306.798 372.72C307.193 372.944 307.614 373.056 308.062 373.056C308.628 373.056 309.092 372.933 309.454 372.688C309.828 372.432 310.094 372.091 310.254 371.664H311.582C311.454 372.144 311.23 372.576 310.91 372.96C310.59 373.344 310.19 373.648 309.71 373.872C309.241 374.085 308.692 374.192 308.062 374.192ZM317.156 374.192C316.399 374.192 315.727 374.016 315.14 373.664C314.564 373.312 314.111 372.821 313.78 372.192C313.449 371.552 313.284 370.811 313.284 369.968C313.284 369.115 313.444 368.373 313.764 367.744C314.095 367.115 314.553 366.624 315.14 366.272C315.737 365.92 316.42 365.744 317.188 365.744C317.977 365.744 318.644 365.92 319.188 366.272C319.743 366.624 320.164 367.088 320.452 367.664C320.751 368.229 320.9 368.853 320.9 369.536C320.9 369.643 320.9 369.755 320.9 369.872C320.9 369.989 320.895 370.123 320.884 370.272H314.292V369.232H319.588C319.556 368.496 319.311 367.92 318.852 367.504C318.404 367.088 317.839 366.88 317.156 366.88C316.697 366.88 316.271 366.987 315.876 367.2C315.492 367.403 315.183 367.707 314.948 368.112C314.713 368.507 314.596 369.003 314.596 369.6V370.048C314.596 370.709 314.713 371.264 314.948 371.712C315.193 372.16 315.508 372.496 315.892 372.72C316.287 372.944 316.708 373.056 317.156 373.056C317.721 373.056 318.185 372.933 318.548 372.688C318.921 372.432 319.188 372.091 319.348 371.664H320.676C320.548 372.144 320.324 372.576 320.004 372.96C319.684 373.344 319.284 373.648 318.804 373.872C318.335 374.085 317.785 374.192 317.156 374.192Z" fill="black"/>
</svg>
