<svg width="561" height="429" viewBox="0 0 561 429" fill="none" xmlns="http://www.w3.org/2000/svg">
<path opacity="0.8" d="M279.025 0L191.5 133H369.5L279.025 0Z" fill="#FFF7C6"/>
<path opacity="0.8" d="M280.44 76V66.304L278.52 66.784V65.824L280.888 64.8H281.8V76H280.44ZM240.723 97V85.8H244.371C245.257 85.8 245.982 85.9493 246.547 86.248C247.123 86.536 247.545 86.9253 247.811 87.416C248.089 87.9067 248.227 88.4667 248.227 89.096C248.227 89.704 248.089 90.2587 247.811 90.76C247.545 91.2507 247.129 91.6453 246.563 91.944C245.998 92.2427 245.267 92.392 244.371 92.392H242.067V97H240.723ZM242.067 91.256H244.355C245.251 91.256 245.891 91.0587 246.275 90.664C246.659 90.2693 246.851 89.7467 246.851 89.096C246.851 88.4027 246.659 87.8693 246.275 87.496C245.891 87.112 245.251 86.92 244.355 86.92H242.067V91.256ZM249.925 97V88.936H251.141L251.237 90.472C251.418 90.1093 251.647 89.8 251.925 89.544C252.213 89.288 252.554 89.0907 252.949 88.952C253.354 88.8133 253.813 88.744 254.325 88.744V90.152H253.829C253.487 90.152 253.162 90.2 252.853 90.296C252.543 90.3813 252.266 90.5253 252.021 90.728C251.786 90.9307 251.599 91.208 251.461 91.56C251.333 91.9013 251.269 92.328 251.269 92.84V97H249.925ZM259.086 97.192C258.328 97.192 257.656 97.016 257.07 96.664C256.494 96.312 256.04 95.8213 255.71 95.192C255.379 94.552 255.214 93.8107 255.214 92.968C255.214 92.1147 255.374 91.3733 255.694 90.744C256.024 90.1147 256.483 89.624 257.07 89.272C257.667 88.92 258.35 88.744 259.118 88.744C259.907 88.744 260.574 88.92 261.118 89.272C261.672 89.624 262.094 90.088 262.382 90.664C262.68 91.2293 262.83 91.8533 262.83 92.536C262.83 92.6427 262.83 92.7547 262.83 92.872C262.83 92.9893 262.824 93.1227 262.814 93.272H256.222V92.232H261.518C261.486 91.496 261.24 90.92 260.782 90.504C260.334 90.088 259.768 89.88 259.086 89.88C258.627 89.88 258.2 89.9867 257.806 90.2C257.422 90.4027 257.112 90.7067 256.878 91.112C256.643 91.5067 256.526 92.0027 256.526 92.6V93.048C256.526 93.7093 256.643 94.264 256.878 94.712C257.123 95.16 257.438 95.496 257.822 95.72C258.216 95.944 258.638 96.056 259.086 96.056C259.651 96.056 260.115 95.9333 260.478 95.688C260.851 95.432 261.118 95.0907 261.278 94.664H262.606C262.478 95.144 262.254 95.576 261.934 95.96C261.614 96.344 261.214 96.648 260.734 96.872C260.264 97.0853 259.715 97.192 259.086 97.192ZM264.643 97V88.936H265.859L265.939 90.088C266.195 89.672 266.537 89.3467 266.963 89.112C267.401 88.8667 267.875 88.744 268.387 88.744C268.803 88.744 269.177 88.8027 269.507 88.92C269.849 89.0267 270.147 89.1973 270.403 89.432C270.659 89.656 270.867 89.944 271.027 90.296C271.305 89.8053 271.683 89.4267 272.163 89.16C272.654 88.8827 273.177 88.744 273.731 88.744C274.35 88.744 274.889 88.872 275.347 89.128C275.817 89.3733 276.174 89.752 276.419 90.264C276.675 90.7653 276.803 91.4053 276.803 92.184V97H275.475V92.328C275.475 91.5173 275.31 90.9093 274.979 90.504C274.649 90.0987 274.185 89.896 273.587 89.896C273.171 89.896 272.798 90.008 272.467 90.232C272.137 90.4453 271.875 90.76 271.683 91.176C271.491 91.592 271.395 92.104 271.395 92.712V97H270.051V92.328C270.051 91.5173 269.886 90.9093 269.555 90.504C269.225 90.0987 268.755 89.896 268.147 89.896C267.742 89.896 267.374 90.008 267.043 90.232C266.723 90.4453 266.467 90.76 266.275 91.176C266.083 91.592 265.987 92.104 265.987 92.712V97H264.643ZM279.021 97V88.936H280.365V97H279.021ZM279.693 87.224C279.427 87.224 279.203 87.1387 279.021 86.968C278.851 86.7867 278.765 86.5627 278.765 86.296C278.765 86.0293 278.851 85.816 279.021 85.656C279.203 85.4853 279.427 85.4 279.693 85.4C279.949 85.4 280.168 85.4853 280.349 85.656C280.531 85.816 280.621 86.0293 280.621 86.296C280.621 86.5627 280.531 86.7867 280.349 86.968C280.168 87.1387 279.949 87.224 279.693 87.224ZM285.665 97.192C285.047 97.192 284.503 97.0693 284.033 96.824C283.575 96.5787 283.217 96.2 282.961 95.688C282.716 95.176 282.593 94.536 282.593 93.768V88.936H283.937V93.624C283.937 94.424 284.113 95.0267 284.465 95.432C284.817 95.8373 285.313 96.04 285.953 96.04C286.401 96.04 286.807 95.9333 287.169 95.72C287.532 95.496 287.815 95.1813 288.017 94.776C288.231 94.36 288.337 93.8533 288.337 93.256V88.936H289.681V97H288.465L288.385 95.592C288.14 96.0933 287.777 96.488 287.297 96.776C286.817 97.0533 286.273 97.192 285.665 97.192ZM291.909 97V88.936H293.125L293.205 90.088C293.461 89.672 293.802 89.3467 294.229 89.112C294.666 88.8667 295.141 88.744 295.653 88.744C296.069 88.744 296.442 88.8027 296.773 88.92C297.114 89.0267 297.413 89.1973 297.669 89.432C297.925 89.656 298.133 89.944 298.293 90.296C298.57 89.8053 298.949 89.4267 299.429 89.16C299.92 88.8827 300.442 88.744 300.997 88.744C301.616 88.744 302.154 88.872 302.613 89.128C303.082 89.3733 303.44 89.752 303.685 90.264C303.941 90.7653 304.069 91.4053 304.069 92.184V97H302.741V92.328C302.741 91.5173 302.576 90.9093 302.245 90.504C301.914 90.0987 301.45 89.896 300.853 89.896C300.437 89.896 300.064 90.008 299.733 90.232C299.402 90.4453 299.141 90.76 298.949 91.176C298.757 91.592 298.661 92.104 298.661 92.712V97H297.317V92.328C297.317 91.5173 297.152 90.9093 296.821 90.504C296.49 90.0987 296.021 89.896 295.413 89.896C295.008 89.896 294.64 90.008 294.309 90.232C293.989 90.4453 293.733 90.76 293.541 91.176C293.349 91.592 293.253 92.104 293.253 92.712V97H291.909ZM309.609 97L312.345 92.968L309.609 88.936H311.081L313.257 92.232L315.465 88.936H316.905L314.169 92.968L316.905 97H315.465L313.257 93.688L311.081 97H309.609ZM248.942 118V106.8H252.59C253.476 106.8 254.201 106.949 254.766 107.248C255.342 107.536 255.764 107.925 256.03 108.416C256.308 108.907 256.446 109.467 256.446 110.096C256.446 110.704 256.308 111.259 256.03 111.76C255.764 112.251 255.348 112.645 254.782 112.944C254.217 113.243 253.486 113.392 252.59 113.392H250.286V118H248.942ZM250.286 112.256H252.574C253.47 112.256 254.11 112.059 254.494 111.664C254.878 111.269 255.07 110.747 255.07 110.096C255.07 109.403 254.878 108.869 254.494 108.496C254.11 108.112 253.47 107.92 252.574 107.92H250.286V112.256ZM258.143 118V109.936H259.359L259.455 111.472C259.637 111.109 259.866 110.8 260.143 110.544C260.431 110.288 260.773 110.091 261.167 109.952C261.573 109.813 262.031 109.744 262.543 109.744V111.152H262.047C261.706 111.152 261.381 111.2 261.071 111.296C260.762 111.381 260.485 111.525 260.239 111.728C260.005 111.931 259.818 112.208 259.679 112.56C259.551 112.901 259.487 113.328 259.487 113.84V118H258.143ZM267.304 118.192C266.547 118.192 265.875 118.016 265.288 117.664C264.712 117.312 264.259 116.821 263.928 116.192C263.598 115.552 263.432 114.811 263.432 113.968C263.432 113.115 263.592 112.373 263.912 111.744C264.243 111.115 264.702 110.624 265.288 110.272C265.886 109.92 266.568 109.744 267.336 109.744C268.126 109.744 268.792 109.92 269.336 110.272C269.891 110.624 270.312 111.088 270.6 111.664C270.899 112.229 271.048 112.853 271.048 113.536C271.048 113.643 271.048 113.755 271.048 113.872C271.048 113.989 271.043 114.123 271.032 114.272H264.44V113.232H269.736C269.704 112.496 269.459 111.92 269 111.504C268.552 111.088 267.987 110.88 267.304 110.88C266.846 110.88 266.419 110.987 266.024 111.2C265.64 111.403 265.331 111.707 265.096 112.112C264.862 112.507 264.744 113.003 264.744 113.6V114.048C264.744 114.709 264.862 115.264 265.096 115.712C265.342 116.16 265.656 116.496 266.04 116.72C266.435 116.944 266.856 117.056 267.304 117.056C267.87 117.056 268.334 116.933 268.696 116.688C269.07 116.432 269.336 116.091 269.496 115.664H270.824C270.696 116.144 270.472 116.576 270.152 116.96C269.832 117.344 269.432 117.648 268.952 117.872C268.483 118.085 267.934 118.192 267.304 118.192ZM272.862 118V109.936H274.078L274.158 111.088C274.414 110.672 274.756 110.347 275.182 110.112C275.62 109.867 276.094 109.744 276.606 109.744C277.022 109.744 277.396 109.803 277.726 109.92C278.068 110.027 278.366 110.197 278.622 110.432C278.878 110.656 279.086 110.944 279.246 111.296C279.524 110.805 279.902 110.427 280.382 110.16C280.873 109.883 281.396 109.744 281.95 109.744C282.569 109.744 283.108 109.872 283.566 110.128C284.036 110.373 284.393 110.752 284.638 111.264C284.894 111.765 285.022 112.405 285.022 113.184V118H283.694V113.328C283.694 112.517 283.529 111.909 283.198 111.504C282.868 111.099 282.404 110.896 281.806 110.896C281.39 110.896 281.017 111.008 280.686 111.232C280.356 111.445 280.094 111.76 279.902 112.176C279.71 112.592 279.614 113.104 279.614 113.712V118H278.27V113.328C278.27 112.517 278.105 111.909 277.774 111.504C277.444 111.099 276.974 110.896 276.366 110.896C275.961 110.896 275.593 111.008 275.262 111.232C274.942 111.445 274.686 111.76 274.494 112.176C274.302 112.592 274.206 113.104 274.206 113.712V118H272.862ZM287.24 118V109.936H288.584V118H287.24ZM287.912 108.224C287.646 108.224 287.422 108.139 287.24 107.968C287.07 107.787 286.984 107.563 286.984 107.296C286.984 107.029 287.07 106.816 287.24 106.656C287.422 106.485 287.646 106.4 287.912 106.4C288.168 106.4 288.387 106.485 288.568 106.656C288.75 106.816 288.84 107.029 288.84 107.296C288.84 107.563 288.75 107.787 288.568 107.968C288.387 108.139 288.168 108.224 287.912 108.224ZM293.884 118.192C293.265 118.192 292.721 118.069 292.252 117.824C291.793 117.579 291.436 117.2 291.18 116.688C290.935 116.176 290.812 115.536 290.812 114.768V109.936H292.156V114.624C292.156 115.424 292.332 116.027 292.684 116.432C293.036 116.837 293.532 117.04 294.172 117.04C294.62 117.04 295.025 116.933 295.388 116.72C295.751 116.496 296.033 116.181 296.236 115.776C296.449 115.36 296.556 114.853 296.556 114.256V109.936H297.9V118H296.684L296.604 116.592C296.359 117.093 295.996 117.488 295.516 117.776C295.036 118.053 294.492 118.192 293.884 118.192ZM300.128 118V109.936H301.344L301.424 111.088C301.68 110.672 302.021 110.347 302.448 110.112C302.885 109.867 303.36 109.744 303.872 109.744C304.288 109.744 304.661 109.803 304.992 109.92C305.333 110.027 305.632 110.197 305.888 110.432C306.144 110.656 306.352 110.944 306.512 111.296C306.789 110.805 307.168 110.427 307.648 110.16C308.138 109.883 308.661 109.744 309.216 109.744C309.834 109.744 310.373 109.872 310.832 110.128C311.301 110.373 311.658 110.752 311.904 111.264C312.16 111.765 312.288 112.405 312.288 113.184V118H310.96V113.328C310.96 112.517 310.794 111.909 310.464 111.504C310.133 111.099 309.669 110.896 309.072 110.896C308.656 110.896 308.282 111.008 307.952 111.232C307.621 111.445 307.36 111.76 307.168 112.176C306.976 112.592 306.88 113.104 306.88 113.712V118H305.536V113.328C305.536 112.517 305.37 111.909 305.04 111.504C304.709 111.099 304.24 110.896 303.632 110.896C303.226 110.896 302.858 111.008 302.528 111.232C302.208 111.445 301.952 111.76 301.76 112.176C301.568 112.592 301.472 113.104 301.472 113.712V118H300.128Z" fill="black"/>
<path d="M95.5 280L187.622 141H373.378L465.5 280H95.5Z" fill="#FFEC76"/>
<path d="M277.915 210.25V209.306C278.672 208.709 279.392 208.106 280.075 207.498C280.768 206.89 281.381 206.287 281.915 205.69C282.448 205.082 282.864 204.49 283.163 203.914C283.472 203.338 283.627 202.783 283.627 202.25C283.627 201.855 283.557 201.493 283.419 201.162C283.28 200.821 283.056 200.543 282.747 200.33C282.448 200.117 282.043 200.01 281.531 200.01C281.029 200.01 280.613 200.122 280.283 200.346C279.952 200.559 279.701 200.847 279.531 201.21C279.371 201.562 279.291 201.951 279.291 202.378H277.995C278.005 201.642 278.16 201.013 278.459 200.49C278.768 199.957 279.189 199.551 279.723 199.274C280.256 198.997 280.864 198.858 281.547 198.858C282.219 198.858 282.811 198.986 283.323 199.242C283.835 199.487 284.235 199.855 284.523 200.346C284.821 200.837 284.971 201.455 284.971 202.202C284.971 202.725 284.859 203.247 284.635 203.77C284.421 204.293 284.133 204.805 283.771 205.306C283.408 205.797 283.003 206.271 282.555 206.73C282.117 207.189 281.664 207.621 281.195 208.026C280.736 208.431 280.304 208.799 279.899 209.13H285.355V210.25H277.915ZM225.536 231.25V220.05H229.184C230.069 220.05 230.795 220.199 231.36 220.498C231.936 220.786 232.357 221.175 232.624 221.666C232.901 222.157 233.04 222.717 233.04 223.346C233.04 223.954 232.901 224.509 232.624 225.01C232.357 225.501 231.941 225.895 231.376 226.194C230.811 226.493 230.08 226.642 229.184 226.642H226.88V231.25H225.536ZM226.88 225.506H229.168C230.064 225.506 230.704 225.309 231.088 224.914C231.472 224.519 231.664 223.997 231.664 223.346C231.664 222.653 231.472 222.119 231.088 221.746C230.704 221.362 230.064 221.17 229.168 221.17H226.88V225.506ZM234.737 231.25V223.186H235.953L236.049 224.722C236.231 224.359 236.46 224.05 236.737 223.794C237.025 223.538 237.367 223.341 237.761 223.202C238.167 223.063 238.625 222.994 239.137 222.994V224.402H238.641C238.3 224.402 237.975 224.45 237.665 224.546C237.356 224.631 237.079 224.775 236.833 224.978C236.599 225.181 236.412 225.458 236.273 225.81C236.145 226.151 236.081 226.578 236.081 227.09V231.25H234.737ZM243.898 231.442C243.141 231.442 242.469 231.266 241.882 230.914C241.306 230.562 240.853 230.071 240.522 229.442C240.192 228.802 240.026 228.061 240.026 227.218C240.026 226.365 240.186 225.623 240.506 224.994C240.837 224.365 241.296 223.874 241.882 223.522C242.48 223.17 243.162 222.994 243.93 222.994C244.72 222.994 245.386 223.17 245.93 223.522C246.485 223.874 246.906 224.338 247.194 224.914C247.493 225.479 247.642 226.103 247.642 226.786C247.642 226.893 247.642 227.005 247.642 227.122C247.642 227.239 247.637 227.373 247.626 227.522H241.034V226.482H246.33C246.298 225.746 246.053 225.17 245.594 224.754C245.146 224.338 244.581 224.13 243.898 224.13C243.44 224.13 243.013 224.237 242.618 224.45C242.234 224.653 241.925 224.957 241.69 225.362C241.456 225.757 241.338 226.253 241.338 226.85V227.298C241.338 227.959 241.456 228.514 241.69 228.962C241.936 229.41 242.25 229.746 242.634 229.97C243.029 230.194 243.45 230.306 243.898 230.306C244.464 230.306 244.928 230.183 245.29 229.938C245.664 229.682 245.93 229.341 246.09 228.914H247.418C247.29 229.394 247.066 229.826 246.746 230.21C246.426 230.594 246.026 230.898 245.546 231.122C245.077 231.335 244.528 231.442 243.898 231.442ZM249.456 231.25V223.186H250.672L250.752 224.338C251.008 223.922 251.349 223.597 251.776 223.362C252.213 223.117 252.688 222.994 253.2 222.994C253.616 222.994 253.989 223.053 254.32 223.17C254.661 223.277 254.96 223.447 255.216 223.682C255.472 223.906 255.68 224.194 255.84 224.546C256.117 224.055 256.496 223.677 256.976 223.41C257.467 223.133 257.989 222.994 258.544 222.994C259.163 222.994 259.701 223.122 260.16 223.378C260.629 223.623 260.987 224.002 261.232 224.514C261.488 225.015 261.616 225.655 261.616 226.434V231.25H260.288V226.578C260.288 225.767 260.123 225.159 259.792 224.754C259.461 224.349 258.997 224.146 258.4 224.146C257.984 224.146 257.611 224.258 257.28 224.482C256.949 224.695 256.688 225.01 256.496 225.426C256.304 225.842 256.208 226.354 256.208 226.962V231.25H254.864V226.578C254.864 225.767 254.699 225.159 254.368 224.754C254.037 224.349 253.568 224.146 252.96 224.146C252.555 224.146 252.187 224.258 251.856 224.482C251.536 224.695 251.28 225.01 251.088 225.426C250.896 225.842 250.8 226.354 250.8 226.962V231.25H249.456ZM263.834 231.25V223.186H265.178V231.25H263.834ZM264.506 221.474C264.239 221.474 264.015 221.389 263.834 221.218C263.663 221.037 263.578 220.813 263.578 220.546C263.578 220.279 263.663 220.066 263.834 219.906C264.015 219.735 264.239 219.65 264.506 219.65C264.762 219.65 264.981 219.735 265.162 219.906C265.343 220.066 265.434 220.279 265.434 220.546C265.434 220.813 265.343 221.037 265.162 221.218C264.981 221.389 264.762 221.474 264.506 221.474ZM270.478 231.442C269.859 231.442 269.315 231.319 268.846 231.074C268.387 230.829 268.03 230.45 267.774 229.938C267.528 229.426 267.406 228.786 267.406 228.018V223.186H268.75V227.874C268.75 228.674 268.926 229.277 269.278 229.682C269.63 230.087 270.126 230.29 270.766 230.29C271.214 230.29 271.619 230.183 271.982 229.97C272.344 229.746 272.627 229.431 272.83 229.026C273.043 228.61 273.15 228.103 273.15 227.506V223.186H274.494V231.25H273.278L273.198 229.842C272.952 230.343 272.59 230.738 272.11 231.026C271.63 231.303 271.086 231.442 270.478 231.442ZM276.722 231.25V223.186H277.938L278.018 224.338C278.274 223.922 278.615 223.597 279.042 223.362C279.479 223.117 279.954 222.994 280.466 222.994C280.882 222.994 281.255 223.053 281.586 223.17C281.927 223.277 282.226 223.447 282.482 223.682C282.738 223.906 282.946 224.194 283.106 224.546C283.383 224.055 283.762 223.677 284.242 223.41C284.732 223.133 285.255 222.994 285.81 222.994C286.428 222.994 286.967 223.122 287.426 223.378C287.895 223.623 288.252 224.002 288.498 224.514C288.754 225.015 288.882 225.655 288.882 226.434V231.25H287.554V226.578C287.554 225.767 287.388 225.159 287.058 224.754C286.727 224.349 286.263 224.146 285.666 224.146C285.25 224.146 284.876 224.258 284.546 224.482C284.215 224.695 283.954 225.01 283.762 225.426C283.57 225.842 283.474 226.354 283.474 226.962V231.25H282.13V226.578C282.13 225.767 281.964 225.159 281.634 224.754C281.303 224.349 280.834 224.146 280.226 224.146C279.82 224.146 279.452 224.258 279.122 224.482C278.802 224.695 278.546 225.01 278.354 225.426C278.162 225.842 278.066 226.354 278.066 226.962V231.25H276.722ZM294.422 231.25L297.158 227.218L294.422 223.186H295.894L298.07 226.482L300.278 223.186H301.718L298.982 227.218L301.718 231.25H300.278L298.07 227.938L295.894 231.25H294.422ZM307.489 231.25V220.05H314.305V221.154H308.833V225.09H313.489V226.178H308.833V231.25H307.489ZM315.972 231.25V223.186H317.188L317.284 224.722C317.465 224.359 317.694 224.05 317.972 223.794C318.26 223.538 318.601 223.341 318.996 223.202C319.401 223.063 319.86 222.994 320.372 222.994V224.402H319.876C319.534 224.402 319.209 224.45 318.9 224.546C318.59 224.631 318.313 224.775 318.068 224.978C317.833 225.181 317.646 225.458 317.508 225.81C317.38 226.151 317.316 226.578 317.316 227.09V231.25H315.972ZM325.133 231.442C324.375 231.442 323.703 231.266 323.117 230.914C322.541 230.562 322.087 230.071 321.757 229.442C321.426 228.802 321.261 228.061 321.261 227.218C321.261 226.365 321.421 225.623 321.741 224.994C322.071 224.365 322.53 223.874 323.117 223.522C323.714 223.17 324.397 222.994 325.165 222.994C325.954 222.994 326.621 223.17 327.165 223.522C327.719 223.874 328.141 224.338 328.429 224.914C328.727 225.479 328.877 226.103 328.877 226.786C328.877 226.893 328.877 227.005 328.877 227.122C328.877 227.239 328.871 227.373 328.861 227.522H322.269V226.482H327.565C327.533 225.746 327.287 225.17 326.829 224.754C326.381 224.338 325.815 224.13 325.133 224.13C324.674 224.13 324.247 224.237 323.853 224.45C323.469 224.653 323.159 224.957 322.925 225.362C322.69 225.757 322.573 226.253 322.573 226.85V227.298C322.573 227.959 322.69 228.514 322.925 228.962C323.17 229.41 323.485 229.746 323.869 229.97C324.263 230.194 324.685 230.306 325.133 230.306C325.698 230.306 326.162 230.183 326.525 229.938C326.898 229.682 327.165 229.341 327.325 228.914H328.653C328.525 229.394 328.301 229.826 327.981 230.21C327.661 230.594 327.261 230.898 326.781 231.122C326.311 231.335 325.762 231.442 325.133 231.442ZM334.226 231.442C333.469 231.442 332.797 231.266 332.21 230.914C331.634 230.562 331.181 230.071 330.85 229.442C330.52 228.802 330.354 228.061 330.354 227.218C330.354 226.365 330.514 225.623 330.834 224.994C331.165 224.365 331.624 223.874 332.21 223.522C332.808 223.17 333.49 222.994 334.258 222.994C335.048 222.994 335.714 223.17 336.258 223.522C336.813 223.874 337.234 224.338 337.522 224.914C337.821 225.479 337.97 226.103 337.97 226.786C337.97 226.893 337.97 227.005 337.97 227.122C337.97 227.239 337.965 227.373 337.954 227.522H331.362V226.482H336.658C336.626 225.746 336.381 225.17 335.922 224.754C335.474 224.338 334.909 224.13 334.226 224.13C333.768 224.13 333.341 224.237 332.946 224.45C332.562 224.653 332.253 224.957 332.018 225.362C331.784 225.757 331.666 226.253 331.666 226.85V227.298C331.666 227.959 331.784 228.514 332.018 228.962C332.264 229.41 332.578 229.746 332.962 229.97C333.357 230.194 333.778 230.306 334.226 230.306C334.792 230.306 335.256 230.183 335.618 229.938C335.992 229.682 336.258 229.341 336.418 228.914H337.746C337.618 229.394 337.394 229.826 337.074 230.21C336.754 230.594 336.354 230.898 335.874 231.122C335.405 231.335 334.856 231.442 334.226 231.442Z" fill="black"/>
<path opacity="0.8" d="M0 429L92.8237 288H468.176L561 429H0Z" fill="#F4C700"/>
<path opacity="0.8" d="M280.961 353.192C280.247 353.192 279.596 353.064 279.009 352.808C278.433 352.541 277.975 352.147 277.633 351.624C277.292 351.101 277.111 350.451 277.089 349.672H278.449C278.46 350.099 278.561 350.493 278.753 350.856C278.956 351.208 279.244 351.491 279.617 351.704C279.991 351.917 280.439 352.024 280.961 352.024C281.484 352.024 281.921 351.923 282.273 351.72C282.625 351.517 282.892 351.251 283.073 350.92C283.255 350.579 283.345 350.2 283.345 349.784C283.345 349.261 283.217 348.84 282.961 348.52C282.716 348.189 282.38 347.949 281.953 347.8C281.537 347.64 281.079 347.56 280.577 347.56H279.745V346.424H280.577C281.313 346.424 281.889 346.253 282.305 345.912C282.721 345.571 282.929 345.101 282.929 344.504C282.929 344.013 282.764 343.603 282.433 343.272C282.113 342.941 281.623 342.776 280.961 342.776C280.332 342.776 279.831 342.957 279.457 343.32C279.084 343.683 278.871 344.147 278.817 344.712H277.457C277.489 344.104 277.655 343.565 277.953 343.096C278.252 342.627 278.657 342.264 279.169 342.008C279.681 341.741 280.284 341.608 280.977 341.608C281.703 341.608 282.311 341.736 282.801 341.992C283.292 342.248 283.66 342.589 283.905 343.016C284.161 343.443 284.289 343.912 284.289 344.424C284.289 344.808 284.22 345.171 284.081 345.512C283.943 345.843 283.735 346.136 283.457 346.392C283.18 346.648 282.828 346.829 282.401 346.936C282.839 347.021 283.228 347.187 283.569 347.432C283.921 347.677 284.199 347.997 284.401 348.392C284.604 348.787 284.705 349.251 284.705 349.784C284.705 350.392 284.561 350.957 284.273 351.48C283.996 351.992 283.58 352.408 283.025 352.728C282.471 353.037 281.783 353.192 280.961 353.192ZM241.606 374V362.8H248.422V363.904H242.95V367.84H247.606V368.928H242.95V374H241.606ZM250.089 374V365.936H251.305L251.401 367.472C251.582 367.109 251.811 366.8 252.089 366.544C252.377 366.288 252.718 366.091 253.113 365.952C253.518 365.813 253.977 365.744 254.489 365.744V367.152H253.993C253.651 367.152 253.326 367.2 253.017 367.296C252.707 367.381 252.43 367.525 252.185 367.728C251.95 367.931 251.763 368.208 251.625 368.56C251.497 368.901 251.433 369.328 251.433 369.84V374H250.089ZM259.25 374.192C258.492 374.192 257.82 374.016 257.234 373.664C256.658 373.312 256.204 372.821 255.874 372.192C255.543 371.552 255.378 370.811 255.378 369.968C255.378 369.115 255.538 368.373 255.858 367.744C256.188 367.115 256.647 366.624 257.234 366.272C257.831 365.92 258.514 365.744 259.282 365.744C260.071 365.744 260.738 365.92 261.282 366.272C261.836 366.624 262.258 367.088 262.546 367.664C262.844 368.229 262.994 368.853 262.994 369.536C262.994 369.643 262.994 369.755 262.994 369.872C262.994 369.989 262.988 370.123 262.978 370.272H256.386V369.232H261.682C261.65 368.496 261.404 367.92 260.946 367.504C260.498 367.088 259.932 366.88 259.25 366.88C258.791 366.88 258.364 366.987 257.97 367.2C257.586 367.403 257.276 367.707 257.042 368.112C256.807 368.507 256.69 369.003 256.69 369.6V370.048C256.69 370.709 256.807 371.264 257.042 371.712C257.287 372.16 257.602 372.496 257.986 372.72C258.38 372.944 258.802 373.056 259.25 373.056C259.815 373.056 260.279 372.933 260.642 372.688C261.015 372.432 261.282 372.091 261.442 371.664H262.77C262.642 372.144 262.418 372.576 262.098 372.96C261.778 373.344 261.378 373.648 260.898 373.872C260.428 374.085 259.879 374.192 259.25 374.192ZM268.344 374.192C267.586 374.192 266.914 374.016 266.328 373.664C265.752 373.312 265.298 372.821 264.968 372.192C264.637 371.552 264.472 370.811 264.472 369.968C264.472 369.115 264.632 368.373 264.952 367.744C265.282 367.115 265.741 366.624 266.328 366.272C266.925 365.92 267.608 365.744 268.376 365.744C269.165 365.744 269.832 365.92 270.376 366.272C270.93 366.624 271.352 367.088 271.64 367.664C271.938 368.229 272.088 368.853 272.088 369.536C272.088 369.643 272.088 369.755 272.088 369.872C272.088 369.989 272.082 370.123 272.072 370.272H265.48V369.232H270.776C270.744 368.496 270.498 367.92 270.04 367.504C269.592 367.088 269.026 366.88 268.344 366.88C267.885 366.88 267.458 366.987 267.064 367.2C266.68 367.403 266.37 367.707 266.136 368.112C265.901 368.507 265.784 369.003 265.784 369.6V370.048C265.784 370.709 265.901 371.264 266.136 371.712C266.381 372.16 266.696 372.496 267.08 372.72C267.474 372.944 267.896 373.056 268.344 373.056C268.909 373.056 269.373 372.933 269.736 372.688C270.109 372.432 270.376 372.091 270.536 371.664H271.864C271.736 372.144 271.512 372.576 271.192 372.96C270.872 373.344 270.472 373.648 269.992 373.872C269.522 374.085 268.973 374.192 268.344 374.192ZM277.351 374L280.087 369.968L277.351 365.936H278.823L280.999 369.232L283.207 365.936H284.647L281.911 369.968L284.647 374H283.207L280.999 370.688L278.823 374H277.351ZM290.419 374V362.8H297.235V363.904H291.763V367.84H296.419V368.928H291.763V374H290.419ZM298.901 374V365.936H300.117L300.213 367.472C300.395 367.109 300.624 366.8 300.901 366.544C301.189 366.288 301.531 366.091 301.925 365.952C302.331 365.813 302.789 365.744 303.301 365.744V367.152H302.805C302.464 367.152 302.139 367.2 301.829 367.296C301.52 367.381 301.243 367.525 300.997 367.728C300.763 367.931 300.576 368.208 300.437 368.56C300.309 368.901 300.245 369.328 300.245 369.84V374H298.901ZM308.062 374.192C307.305 374.192 306.633 374.016 306.046 373.664C305.47 373.312 305.017 372.821 304.686 372.192C304.356 371.552 304.19 370.811 304.19 369.968C304.19 369.115 304.35 368.373 304.67 367.744C305.001 367.115 305.46 366.624 306.046 366.272C306.644 365.92 307.326 365.744 308.094 365.744C308.884 365.744 309.55 365.92 310.094 366.272C310.649 366.624 311.07 367.088 311.358 367.664C311.657 368.229 311.806 368.853 311.806 369.536C311.806 369.643 311.806 369.755 311.806 369.872C311.806 369.989 311.801 370.123 311.79 370.272H305.198V369.232H310.494C310.462 368.496 310.217 367.92 309.758 367.504C309.31 367.088 308.745 366.88 308.062 366.88C307.604 366.88 307.177 366.987 306.782 367.2C306.398 367.403 306.089 367.707 305.854 368.112C305.62 368.507 305.502 369.003 305.502 369.6V370.048C305.502 370.709 305.62 371.264 305.854 371.712C306.1 372.16 306.414 372.496 306.798 372.72C307.193 372.944 307.614 373.056 308.062 373.056C308.628 373.056 309.092 372.933 309.454 372.688C309.828 372.432 310.094 372.091 310.254 371.664H311.582C311.454 372.144 311.23 372.576 310.91 372.96C310.59 373.344 310.19 373.648 309.71 373.872C309.241 374.085 308.692 374.192 308.062 374.192ZM317.156 374.192C316.399 374.192 315.727 374.016 315.14 373.664C314.564 373.312 314.111 372.821 313.78 372.192C313.449 371.552 313.284 370.811 313.284 369.968C313.284 369.115 313.444 368.373 313.764 367.744C314.095 367.115 314.553 366.624 315.14 366.272C315.737 365.92 316.42 365.744 317.188 365.744C317.977 365.744 318.644 365.92 319.188 366.272C319.743 366.624 320.164 367.088 320.452 367.664C320.751 368.229 320.9 368.853 320.9 369.536C320.9 369.643 320.9 369.755 320.9 369.872C320.9 369.989 320.895 370.123 320.884 370.272H314.292V369.232H319.588C319.556 368.496 319.311 367.92 318.852 367.504C318.404 367.088 317.839 366.88 317.156 366.88C316.697 366.88 316.271 366.987 315.876 367.2C315.492 367.403 315.183 367.707 314.948 368.112C314.713 368.507 314.596 369.003 314.596 369.6V370.048C314.596 370.709 314.713 371.264 314.948 371.712C315.193 372.16 315.508 372.496 315.892 372.72C316.287 372.944 316.708 373.056 317.156 373.056C317.721 373.056 318.185 372.933 318.548 372.688C318.921 372.432 319.188 372.091 319.348 371.664H320.676C320.548 372.144 320.324 372.576 320.004 372.96C319.684 373.344 319.284 373.648 318.804 373.872C318.335 374.085 317.785 374.192 317.156 374.192Z" fill="black"/>
</svg>
